<svg width="182" height="74" viewBox="0 0 182 74" fill="none" xmlns="http://www.w3.org/2000/svg">
<path d="M41.3142 29.1487C37.4449 25.7331 32.4564 23.8659 27.3013 23.9038H14.0938V13.5472C14.0938 6.88322 10.5397 2.07732 4.26834 1.35997C3.8539 1.30901 3.44337 1.28157 3.02893 1.26589H2.98591H2.92336H2.82952C2.05751 1.21815 1.28805 1.39367 0.612634 1.77157C0.330737 1.9533 0.124917 2.23216 0.0339838 2.55557C-0.165418 3.33956 0.561812 4.14707 0.937158 4.77819C1.47605 5.62016 1.76115 6.60017 1.75823 7.60058V55.389C1.76002 58.4808 2.62843 61.5098 4.26443 64.1306C5.1789 65.6216 6.30502 66.9711 7.60736 68.1368C10.502 70.7209 14.0695 72.4271 17.8942 73.0564C19.1227 73.2647 20.3665 73.3696 21.6124 73.37H27.7548H38.3622H45.4234C45.7873 73.3707 46.1429 73.2614 46.4439 73.0564C46.6642 72.91 46.8451 72.7115 46.9706 72.4784C47.0961 72.2452 47.1622 71.9846 47.1633 71.7197V41.7475C47.1179 39.3548 46.5742 36.9979 45.5669 34.8283C44.5596 32.6586 43.1111 30.7241 41.3142 29.1487ZM20.8226 68.2113C19.1121 68.2392 17.4353 67.7323 16.0253 66.7609C14.8249 65.875 14.0899 63.8876 14.0899 62.6018V29.0781H27.8095C29.5208 29.0455 31.199 29.5528 32.6069 30.5285C33.7799 31.3988 34.5149 33.3627 34.5345 34.6367V62.9742C34.5198 64.3873 34.8415 65.7836 35.4728 67.0471L36.075 68.2231H20.8266L20.8226 68.2113Z" fill="white"/>
<path d="M58.8243 59.9108L58.7656 28.4412C58.7656 23.7372 56.2555 23.5412 57.1704 22.1457C59.3208 18.8647 71.7502 23.2119 71.7502 32.6356V66.218C71.7502 71.0122 73.7364 70.4359 73.3142 72.1646C72.5987 74.9008 58.8243 73.96 58.8243 59.9108Z" fill="white"/>
<path d="M127.569 72.0927C127.529 72.2551 127.457 72.4079 127.357 72.5424C127.258 72.677 127.133 72.7906 126.99 72.8767C126.315 73.254 125.545 73.4295 124.773 73.3824H124.687H124.625H124.582C121.677 73.304 120.054 72.6298 117.775 70.9873C116.235 69.8481 114.99 68.3566 114.141 66.6369C113.293 64.9172 112.867 63.0192 112.899 61.1011V34.5237C112.88 33.2457 112.293 31.2818 111.335 30.4155C110.311 29.5036 108.995 28.9891 107.625 28.9651H95.7546L96.2472 30.1411C96.7666 31.4351 97.0257 32.8192 97.0096 34.214V71.6223C97.0031 71.8448 96.9528 72.0637 96.8618 72.2666C96.7708 72.4696 96.6408 72.6525 96.4792 72.8051C96.3176 72.9576 96.1276 73.0767 95.9201 73.1556C95.7126 73.2345 95.4916 73.2716 95.2698 73.2648H95.215C91.3052 73.0218 89.0531 72.8924 86.6134 70.6933C85.4013 69.6075 84.6584 68.0081 84.6584 65.6287V30.0706C84.6557 29.088 84.3736 28.1266 83.8452 27.2991C83.4542 26.6641 82.7348 25.8762 82.942 25.0765C82.9805 24.9144 83.0507 24.7615 83.1487 24.6269C83.2467 24.4923 83.3705 24.3786 83.5129 24.2925C84.1904 23.9084 84.9646 23.73 85.7415 23.779H85.804H85.8549H85.89H85.9409C86.0347 23.779 86.1325 23.779 86.2263 23.779H106.237L108.544 23.9279H108.563C112.8 24.4067 116.787 26.1866 119.976 29.0239C123.581 32.2736 125.79 36.7306 125.841 41.6306V67.036C125.838 68.0328 126.12 69.0096 126.654 69.8505C126.803 70.1092 127.01 70.3875 127.194 70.6776C127.348 70.8758 127.461 71.1034 127.526 71.3466C127.59 71.5899 127.605 71.8437 127.569 72.0927Z" fill="white"/>
<path d="M181.932 72.0927C181.892 72.2551 181.82 72.4079 181.721 72.5424C181.621 72.677 181.497 72.7906 181.354 72.8767C180.678 73.254 179.909 73.4295 179.137 73.3824H179.051H178.988H178.945C176.04 73.304 174.418 72.6298 172.138 70.9873C170.6 69.8465 169.356 68.3537 168.51 66.6334C167.664 64.9131 167.241 63.015 167.274 61.0972V34.5237C167.255 33.2457 166.668 31.2818 165.71 30.4155C164.686 29.5036 163.37 28.9891 162 28.9651H150.122L150.614 30.1411C151.134 31.4351 151.393 32.8192 151.377 34.214V71.6223C151.37 71.8448 151.32 72.0637 151.229 72.2666C151.138 72.4696 151.008 72.6525 150.846 72.8051C150.685 72.9576 150.495 73.0767 150.287 73.1556C150.08 73.2345 149.859 73.2716 149.637 73.2648H149.578C145.668 73.0218 143.416 72.8924 140.977 70.6933C139.765 69.6075 139.022 68.0081 139.022 65.6287V30.0706C139.019 29.088 138.737 28.1266 138.208 27.2991C137.817 26.6641 137.098 25.8762 137.305 25.0765C137.344 24.9144 137.414 24.7615 137.512 24.6269C137.61 24.4923 137.734 24.3786 137.876 24.2925C138.554 23.9084 139.328 23.73 140.105 23.779H140.167H140.218H140.253H140.304C140.398 23.779 140.496 23.779 140.59 23.779H160.628L162.934 23.9279H162.954C167.191 24.4067 171.177 26.1866 174.367 29.0239C177.972 32.2736 180.181 36.7306 180.232 41.6306V67.036C180.228 68.0328 180.511 69.0096 181.045 69.8505C181.193 70.1092 181.401 70.3875 181.584 70.6776C181.734 70.8779 181.842 71.1065 181.902 71.3496C181.962 71.5928 181.972 71.8455 181.932 72.0927Z" fill="white"/>
<path d="M63.4635 13.6304C67.0502 13.6304 69.9578 10.7153 69.9578 7.11928C69.9578 3.52331 67.0502 0.6082 63.4635 0.6082C59.8768 0.6082 56.9692 3.52331 56.9692 7.11928C56.9692 10.7153 59.8768 13.6304 63.4635 13.6304Z" fill="white"/>
</svg>
