<svg width="60" height="61" viewBox="0 0 60 61" fill="none" xmlns="http://www.w3.org/2000/svg">
<path d="M30 0.105225C13.4319 0.105225 0 13.5371 0 30.1052C0 46.6733 13.4319 60.1052 30 60.1052C46.5681 60.1052 60 46.6733 60 30.1052C60 13.5371 46.5681 0.105225 30 0.105225ZM58.0492 30.1052C58.0492 45.5956 45.4921 58.1544 30 58.1544C14.5079 58.1544 1.95085 45.5956 1.95085 30.1052C1.95085 14.6149 14.5096 2.05607 30 2.05607C45.4904 2.05607 58.0492 14.6149 58.0492 30.1052Z" fill="#6F6F6F"/>
<path d="M29.9996 12.3275V13.3023C39.2639 13.3023 46.8026 20.8392 46.8026 30.1053H47.7774C47.7774 20.2875 39.8174 12.3275 29.9996 12.3275ZM29.9996 46.9084C20.7353 46.9084 13.1965 39.3714 13.1965 30.1053H12.2218C12.2218 39.9231 20.1818 47.8831 29.9996 47.8831" fill="#6F6F6F"/>
<path d="M44.3636 17.4455C44.7707 17.8795 45.3575 18.5796 45.687 19.0048L51.7562 15.1791C51.4531 14.7853 50.9703 14.1868 50.609 13.765L46.7655 16.2887L46.503 16.5127L46.6986 16.2292L48.3956 12.8655L47.1955 11.6737L43.8067 13.359L43.5212 13.5533L43.7486 13.2925L46.2915 9.47729C45.8439 9.09927 45.4139 8.75275 44.8658 8.33272L41.0136 14.3548C41.5017 14.7276 42.1449 15.2754 42.5555 15.6481L46.1822 13.779L46.4148 13.6093L46.2439 13.8403L44.3636 17.4455Z" fill="#6F6F6F"/>
<path d="M30.5921 9.81342L32.2504 6.1242L32.3561 5.79693L32.3261 6.1382L32.5006 11.0682C33.0821 11.1225 33.6831 11.203 34.2752 11.301L34.0056 3.99958C33.1773 3.90857 32.3526 3.84382 31.5278 3.80882L29.8942 7.8358L29.8361 8.13507L29.7779 7.8358L28.1461 3.80882C27.3214 3.84382 26.4966 3.90857 25.6684 3.99958L25.3987 11.301C25.9909 11.203 26.5918 11.1242 27.1733 11.0682L27.3478 6.1382L27.3178 5.79693L27.4236 6.1242L29.0818 9.81342H30.5921Z" fill="#6F6F6F"/>
<path d="M17.1795 15.6325C18.1382 14.6297 18.6809 13.4711 17.7223 12.365C17.2006 11.7648 16.3248 11.6335 15.5988 11.9293L15.5265 11.9573L15.5494 11.8943C15.6569 11.609 15.7256 10.6989 14.945 10.0707C14.5643 9.76439 14.0868 9.65064 13.6039 9.69964C12.7034 9.79065 12.0108 10.4014 10.1252 12.4893C9.55602 13.1193 8.72776 14.1134 8.23081 14.7574L13.4101 19.6367C15.1265 17.7501 15.8261 17.0483 17.1795 15.6325ZM10.4213 14.4389C11.4645 13.1718 12.573 12.022 13.0752 11.567C13.2338 11.4235 13.4065 11.28 13.6162 11.224C13.9563 11.1312 14.307 11.371 14.3863 11.7175C14.4656 12.0658 14.2454 12.3965 14.0004 12.6696C13.4488 13.2873 11.4258 15.3892 11.4258 15.3892L10.4213 14.4389ZM12.4496 16.35C12.4496 16.35 14.4198 14.2814 15.063 13.6199C15.3186 13.3574 15.4825 13.1981 15.6587 13.1123C15.886 13.0021 16.1345 12.9793 16.3565 13.1263C16.575 13.2716 16.6755 13.5219 16.6209 13.7704C16.5557 14.0661 16.3125 14.3479 16.1116 14.5632C15.8402 14.8519 13.5035 17.3353 13.4999 17.3388L12.4496 16.35Z" fill="#6F6F6F"/>
<path d="M29.9996 12.3275V30.1053L12.2218 30.1053C12.2218 20.2805 20.1747 12.3275 29.9996 12.3275Z" fill="#0066B1"/>
<path d="M47.7774 30.1053C47.7774 39.9302 39.8244 47.8831 29.9996 47.8831V30.1053L47.7774 30.1053Z" fill="#0066B1"/>
</svg>
