<svg width="152" height="55" viewBox="0 0 152 55" fill="none" xmlns="http://www.w3.org/2000/svg">
<path d="M151.51 46.7846H0V54.5796H151.51V46.7846Z" fill="#F68C28"/>
<path d="M138.141 10.5587V21.2909H139.082L147.104 10.5587H151.812L142.547 21.7804C145.974 22.1947 148.046 24.8683 149.703 29.3118C150.268 30.9311 151.021 33.3411 152 35.3369H147.895C147.33 34.2449 146.577 32.3244 145.899 30.2532C144.43 26.2616 142.472 24.4164 138.856 24.4164H138.103V35.2993H134.262V10.5587H138.141Z" fill="#A9ACAE"/>
<path d="M100.894 35.3369L100.593 32.2114H100.442C99.2369 34.1696 96.9772 35.9018 93.9267 35.9018C89.6333 35.9018 87.4113 32.362 87.4113 28.7846C87.4113 22.7972 91.9683 19.521 100.216 19.5587V19.0315C100.216 16.998 99.7265 13.3076 95.3954 13.3076C93.3994 13.3076 91.3657 14.0231 89.8593 15.1528L88.9931 12.1779C90.7631 10.8599 93.2864 9.99382 95.998 9.99382C102.513 9.99382 104.095 15.1528 104.095 20.1235V29.3871C104.095 31.5336 104.17 33.6424 104.434 35.3369H100.894ZM100.291 22.6842C96.0733 22.5712 91.2904 23.4373 91.2904 28.2574C91.2904 31.157 92.9475 32.5503 94.9435 32.5503C97.7304 32.5503 99.4628 30.5168 100.103 28.408C100.216 27.9562 100.329 27.429 100.329 26.9771V22.6842H100.291Z" fill="#A9ACAE"/>
<path d="M81.8375 0.843188V4.57122H69.0327V13.8348C69.9742 13.6842 71.7067 13.5712 72.6858 13.5712C75.5104 13.5712 78.2597 14.2867 80.331 15.8683C82.5907 17.5629 84.0971 20.2742 84.0971 24.3034C84.0971 27.5419 83.1556 29.9896 81.6492 31.7595C79.2389 34.5085 75.2468 35.6005 71.1794 35.6005C68.5055 35.6005 66.4718 35.4122 65.1913 35.1863V0.843188H81.8375ZM69.0327 31.9101C69.8989 32.0984 70.9158 32.1737 72.2339 32.1737C74.6066 32.1737 77.0169 31.3076 78.4856 29.5001C79.5025 28.2574 80.1051 26.6005 80.1051 24.4164C80.1051 21.7428 79.1259 19.9729 77.6948 18.7679C76.1507 17.5252 74.1923 17.0357 72.0833 17.0357C71.217 17.0357 70.0119 17.1486 69.0327 17.2239V31.9101Z" fill="#A9ACAE"/>
<path d="M114.038 10.5587V20.5378H124.131V10.5587H127.972V35.3369H124.131V24.1152H114.038V35.3369H110.196V10.5587H114.038Z" fill="#A9ACAE"/>
<path d="M0.0376612 1.29507C2.10902 0.880845 5.00892 0.57959 9.11398 0.57959C13.2567 0.57959 16.1943 1.48336 18.1903 3.32854C20.0733 5.06076 21.3538 7.92269 21.3538 11.3118C21.3538 14.7009 20.3746 17.5629 18.6422 19.4834C16.3449 22.0064 12.9554 23.0984 9.00099 23.0984C8.13479 23.0984 7.34391 23.0608 6.70367 22.9478V35.2993H0.0376612V1.29507ZM6.66601 16.9603C7.23092 17.111 7.94648 17.1486 8.92567 17.1486C12.5035 17.1486 14.6878 15.0398 14.6878 11.5378C14.6878 8.37457 12.8048 6.45407 9.45292 6.45407C8.09713 6.45407 7.1556 6.6047 6.66601 6.75532V16.9603Z" fill="#555D63"/>
<path d="M32.3132 0.843188V14.0984H43.3479V0.843188H50.0515V35.3369H43.3479V20.9143H32.3132V35.3369H25.5719V0.843188H32.3132Z" fill="#555D63"/>
</svg>
