<svg width="60" height="61" viewBox="0 0 60 61" fill="none" xmlns="http://www.w3.org/2000/svg">
<path d="M27.0749 32.324H34.3571V29.8931H33.5574C33.5574 30.8229 32.8773 31.5084 31.8385 31.5084H30.7173V27.8793H31.9261V27.0743H27.0749V27.8793H28.297L28.2997 31.5084H27.0749V32.324Z" fill="black"/>
<path d="M37.8587 32.3267L40.6907 32.3293L43.0951 27.8819H44.3013V27.0769H40.6748V27.8819H41.7242L39.9708 31.1205L38.1961 27.8819H39.4686V27.0769H34.2083L34.2056 27.8819H35.4118L37.8587 32.3267Z" fill="black"/>
<path d="M12.5744 27.0769H7.31402L7.31136 27.8819H8.51752L10.9644 32.3267L13.7965 32.3293L16.2008 27.8819H17.407V27.0769H13.7805V27.8819H14.8273L13.0765 31.1205L11.3018 27.8819H12.5744V27.0769Z" fill="black"/>
<path d="M18.111 29.7071C18.111 31.2533 19.3571 32.4834 21.8544 32.4834C24.3517 32.4834 25.5845 31.2533 25.5845 29.7071C25.5845 28.1821 24.2774 26.9653 21.8385 26.9653C19.4049 26.9653 18.111 28.1821 18.111 29.7071ZM23.1403 29.7204C23.1243 30.6742 22.7285 31.6678 21.8146 31.6518C20.9245 31.6359 20.534 30.6529 20.5499 29.6752C20.5685 28.663 21.0521 27.781 21.8863 27.7942C22.7205 27.8075 23.1589 28.7082 23.1403 29.7204Z" fill="black"/>
<path d="M44.9973 29.7071C44.9973 31.2533 46.2434 32.4834 48.7407 32.4834C51.238 32.4834 52.4708 31.2533 52.4708 29.7071C52.4708 28.1821 51.1637 26.9653 48.7274 26.9653C46.2912 26.9653 44.9973 28.1821 44.9973 29.7071ZM48.7726 27.7942C49.6041 27.8102 50.0452 28.7082 50.0266 29.7204C50.008 30.6742 49.6148 31.6678 48.7008 31.6518C47.8108 31.6359 47.4203 30.6529 47.4362 29.6752C47.4548 28.6603 47.9384 27.7783 48.7726 27.7942Z" fill="black"/>
<path d="M54.6865 13.0068L51.6392 16.0541C54.2508 20.0844 55.7705 24.8904 55.7705 30.0525C55.7705 44.2847 44.2322 55.823 30 55.823C15.7678 55.823 4.22954 44.2847 4.22954 30.0525C4.22954 15.8203 15.7678 4.28203 30 4.28203C35.1727 4.28203 39.9894 5.80701 44.0276 8.43187L47.0749 5.38458C42.229 2.0238 36.3443 0.0524902 30 0.0524902C13.4325 0.0524902 0 13.4824 0 30.0525C0 46.6226 13.4299 60.0525 30 60.0525C46.5701 60.0525 60 46.6226 60 30.0525C59.9973 23.7188 58.034 17.8474 54.6865 13.0068Z" fill="black"/>
<path d="M45.0903 1.23209V2.07428C46.9102 3.05993 48.6212 4.22359 50.2072 5.53071L45.9325 9.80541C47.5452 11.07 49.0011 12.5259 50.2683 14.1359L54.5377 9.86652C55.8475 11.4553 57.0112 13.1689 57.9968 14.9622H58.8178V1.23209H45.0903Z" fill="black"/>
</svg>
