<svg width="239" height="70" viewBox="0 0 239 70" fill="none" xmlns="http://www.w3.org/2000/svg">
<g opacity="0.2">
<path d="M22.865 69.9537C19.121 69.9537 15.377 69.8223 11.633 69.5596C7.95473 69.3625 4.11221 68.8371 0.105469 67.9832V1.77347C3.25831 1.18232 6.70673 0.755368 10.4507 0.492631C14.1947 0.16421 17.676 0 20.8945 0C25.2297 0 29.2036 0.328421 32.8162 0.985262C36.4945 1.57642 39.6474 2.62737 42.2747 4.1381C44.9021 5.64884 46.9383 7.65221 48.3834 10.1482C49.8941 12.5785 50.6495 15.6 50.6495 19.2126C50.6495 24.6644 48.0221 28.9667 42.7674 32.1196C47.1025 33.7617 50.0583 35.9949 51.6347 38.8194C53.2112 41.6438 53.9994 44.8295 53.9994 48.3764C53.9994 55.536 51.372 60.9221 46.1173 64.5347C40.9282 68.1474 33.1775 69.9537 22.865 69.9537ZM15.0815 39.312V56.9482C16.1981 57.0796 17.4133 57.1781 18.7269 57.2438C20.0406 57.3095 21.4857 57.3423 23.0621 57.3423C27.66 57.3423 31.3712 56.6855 34.1956 55.3718C37.02 54.0581 38.4322 51.6278 38.4322 48.0808C38.4322 44.928 37.2499 42.6947 34.8853 41.3811C32.5206 40.0017 29.1379 39.312 24.737 39.312H15.0815ZM15.0815 27.5874H22.5695C27.2987 27.5874 30.6815 26.9962 32.7177 25.8139C34.7539 24.5659 35.772 22.5954 35.772 19.9023C35.772 17.1436 34.7211 15.2059 32.6192 14.0893C30.5173 12.9726 27.4301 12.4143 23.3577 12.4143C22.044 12.4143 20.6318 12.4472 19.121 12.5128C17.6103 12.5128 16.2638 12.5785 15.0815 12.7099V27.5874Z" fill="#9999AD"/>
<path d="M84.4317 0.788212C85.614 2.95579 86.9605 5.64884 88.4713 8.86737C90.0477 12.0202 91.657 15.4686 93.299 19.2126C95.0068 22.8909 96.6818 26.6678 98.3239 30.5432C99.966 34.4185 101.51 38.064 102.955 41.4796C104.4 38.064 105.943 34.4185 107.585 30.5432C109.227 26.6678 110.87 22.8909 112.512 19.2126C114.219 15.4686 115.829 12.0202 117.339 8.86737C118.916 5.64884 120.295 2.95579 121.478 0.788212H135.468C136.125 5.32042 136.716 10.4109 137.242 16.0598C137.833 21.643 138.326 27.4888 138.72 33.5975C139.179 39.6404 139.574 45.7162 139.902 51.8248C140.296 57.9335 140.625 63.6809 140.887 69.067H125.911C125.714 62.4328 125.451 55.2076 125.123 47.3912C124.795 39.5747 124.302 31.6926 123.645 23.7448C122.463 26.5036 121.149 29.5579 119.704 32.9078C118.259 36.2577 116.814 39.6076 115.369 42.9575C113.99 46.3074 112.643 49.5259 111.329 52.6131C110.016 55.6345 108.899 58.2291 107.979 60.3966H97.2401C96.3205 58.2291 95.2039 55.6345 93.8902 52.6131C92.5765 49.5259 91.1972 46.3074 89.7521 42.9575C88.3727 39.6076 86.9605 36.2577 85.5155 32.9078C84.0704 29.5579 82.7567 26.5036 81.5744 23.7448C80.9176 31.6926 80.4249 39.5747 80.0965 47.3912C79.7681 55.2076 79.5054 62.4328 79.3083 69.067H64.3323C64.595 63.6809 64.8906 57.9335 65.2191 51.8248C65.6132 45.7162 66.0073 39.6404 66.4014 33.5975C66.8612 27.4888 67.3538 21.643 67.8793 16.0598C68.4704 10.4109 69.0944 5.32042 69.7513 0.788212H84.4317Z" fill="#9999AD"/>
<path d="M200.541 8.07916C201.329 10.7722 202.183 13.8265 203.103 17.2421C204.088 20.592 205.106 24.0733 206.157 27.6859C207.274 31.2985 208.39 34.9112 209.507 38.5238C210.624 42.1364 211.707 45.4863 212.758 48.5735C213.612 45.2236 214.466 41.5781 215.32 37.6371C216.24 33.696 217.094 29.6236 217.882 25.4198C218.67 21.216 219.425 17.0451 220.148 12.9069C220.936 8.70316 221.659 4.66358 222.315 0.788212H238.277C235.978 12.2173 233.318 23.8105 230.296 35.568C227.34 47.3255 224.122 58.4918 220.64 69.067H206.551C204.252 62.7613 202.019 56.16 199.851 49.2632C197.684 42.3006 195.549 35.3381 193.447 28.3756C191.345 35.3381 189.243 42.3006 187.142 49.2632C185.04 56.16 182.839 62.7613 180.54 69.067H166.451C162.97 58.4918 159.718 47.3255 156.697 35.568C153.741 23.8105 151.114 12.2173 148.815 0.788212H165.466C166.123 4.66358 166.845 8.70316 167.633 12.9069C168.422 17.0451 169.243 21.216 170.096 25.4198C170.95 29.6236 171.804 33.696 172.658 37.6371C173.578 41.5781 174.497 45.2236 175.417 48.5735C176.599 45.3549 177.749 41.9394 178.865 38.3267C179.982 34.7141 181.066 31.1015 182.117 27.4888C183.168 23.8762 184.12 20.395 184.974 17.0451C185.894 13.6952 186.715 10.7065 187.437 8.07916H200.541Z" fill="#9999AD"/>
</g>
</svg>
