<svg width="272" height="50" viewBox="0 0 272 50" fill="none" xmlns="http://www.w3.org/2000/svg">
<g opacity="0.2">
<path d="M14.4759 0.0527344C21.6638 0.0527344 27.1823 1.32831 31.0313 3.87945C34.8803 6.38421 36.8048 10.5124 36.8048 16.2641C36.8048 22.0621 34.8571 26.2599 30.9617 28.8575C27.0663 31.4086 21.5015 32.6842 14.2672 32.6842H10.8588V48.8259H0.00732422V1.30511C2.37238 0.84127 4.87656 0.516579 7.51985 0.331041C10.1631 0.145503 12.4818 0.0527344 14.4759 0.0527344ZM15.1715 9.30643C14.3832 9.30643 13.5948 9.32962 12.8064 9.376C12.0645 9.42239 11.4152 9.46877 10.8588 9.51516V23.4305H14.2672C18.0235 23.4305 20.8523 22.9203 22.7536 21.8998C24.6549 20.8793 25.6056 18.9776 25.6056 16.1945C25.6056 14.8494 25.3505 13.7361 24.8404 12.8548C24.3767 11.9735 23.6811 11.2778 22.7536 10.7675C21.8725 10.2109 20.7827 9.83985 19.4842 9.65431C18.1858 9.42239 16.7482 9.30643 15.1715 9.30643Z" fill="#9999AD"/>
<path d="M73.8495 0.609348H84.701V48.8259H73.8495V28.3704H55.6247V48.8259H44.7733V0.609348H55.6247V19.0472H73.8495V0.609348Z" fill="#9999AD"/>
<path d="M122.932 9.79346V17.7252H126.48C130.05 17.7252 133.227 18.0035 136.009 18.5601C138.838 19.1167 141.203 20.0212 143.105 21.2736C145.052 22.526 146.536 24.1494 147.556 26.144C148.577 28.1385 149.087 30.5737 149.087 33.4495C149.087 38.7837 147.139 42.7728 143.244 45.4167C139.395 48.0142 133.876 49.313 126.688 49.313C124.741 49.313 122.515 49.197 120.011 48.9651C117.553 48.7332 115.072 48.3157 112.568 47.7127V0.609348H144.565V9.79346H122.932ZM127.245 40.0593C128.682 40.0593 130.05 39.9665 131.349 39.781C132.647 39.5954 133.783 39.2708 134.757 38.8069C135.778 38.2967 136.589 37.6241 137.192 36.7892C137.795 35.9543 138.096 34.8642 138.096 33.5191C138.096 32.1276 137.818 30.9911 137.261 30.1098C136.705 29.2285 135.917 28.5328 134.896 28.0225C133.876 27.5123 132.624 27.1644 131.14 26.9789C129.656 26.7933 127.987 26.7006 126.132 26.7006H122.932V39.9201C123.442 39.9665 124.045 40.0129 124.741 40.0593C125.483 40.0593 126.317 40.0593 127.245 40.0593Z" fill="#9999AD"/>
<path d="M171.095 41.59C172.115 41.59 173.089 41.5668 174.017 41.5204C174.944 41.474 175.686 41.4044 176.243 41.3117V33.4495C175.825 33.3567 175.199 33.264 174.364 33.1712C173.53 33.0784 172.764 33.0321 172.069 33.0321C171.095 33.0321 170.168 33.1016 169.286 33.2408C168.452 33.3335 167.71 33.5423 167.061 33.867C166.411 34.1917 165.901 34.6323 165.53 35.1889C165.159 35.7455 164.974 36.4413 164.974 37.2762C164.974 38.8997 165.507 40.0361 166.574 40.6855C167.687 41.2885 169.194 41.59 171.095 41.59ZM170.26 11.2546C173.321 11.2546 175.872 11.6025 177.912 12.2982C179.952 12.994 181.575 13.9912 182.781 15.29C184.033 16.5888 184.914 18.1658 185.424 20.0212C185.935 21.8766 186.19 23.9407 186.19 26.2135V47.7823C184.706 48.107 182.642 48.4781 179.999 48.8955C177.355 49.3594 174.156 49.5913 170.399 49.5913C168.034 49.5913 165.878 49.3826 163.93 48.9651C162.029 48.5476 160.383 47.8751 158.992 46.9474C157.6 45.9733 156.534 44.7209 155.792 43.1902C155.05 41.6596 154.679 39.781 154.679 37.5545C154.679 35.4208 155.096 33.6119 155.931 32.1276C156.812 30.6433 157.971 29.4605 159.409 28.5791C160.846 27.6978 162.493 27.0717 164.348 26.7006C166.203 26.2831 168.127 26.0744 170.121 26.0744C171.466 26.0744 172.649 26.144 173.669 26.2831C174.735 26.3759 175.593 26.515 176.243 26.7006V25.7265C176.243 23.9639 175.709 22.5492 174.643 21.4823C173.576 20.4155 171.721 19.8821 169.078 19.8821C167.316 19.8821 165.577 20.0212 163.861 20.2995C162.145 20.5315 160.661 20.8793 159.409 21.3432L158.087 12.994C158.69 12.8084 159.432 12.6229 160.313 12.4374C161.241 12.2055 162.238 12.0199 163.304 11.8808C164.371 11.6952 165.484 11.5561 166.643 11.4633C167.849 11.3241 169.055 11.2546 170.26 11.2546Z" fill="#9999AD"/>
<path d="M227.073 48.8259H216.708V34.354H205.926V48.8259H195.562V12.2286H205.926V25.8657H216.708V12.2286H227.073V48.8259Z" fill="#9999AD"/>
<path d="M247.16 25.0307C248.18 24.0567 249.247 22.9898 250.36 21.8302C251.519 20.6706 252.632 19.5342 253.699 18.421C254.765 17.2614 255.785 16.1481 256.759 15.0813C257.733 14.0144 258.591 13.0636 259.333 12.2286H271.923C270.996 13.2027 269.837 14.4087 268.445 15.8466C267.101 17.2845 265.663 18.792 264.133 20.3691C262.602 21.8998 261.049 23.4305 259.472 24.9612C257.942 26.4919 256.481 27.8602 255.09 29.0662C256.481 30.133 257.965 31.455 259.542 33.0321C261.118 34.6091 262.649 36.3022 264.133 38.1111C265.663 39.9201 267.101 41.7523 268.445 43.6077C269.837 45.4631 271.019 47.2025 271.993 48.8259H260.168C259.333 47.5736 258.382 46.2748 257.316 44.9297C256.249 43.5381 255.136 42.193 253.977 40.8942C252.818 39.5491 251.635 38.2967 250.429 37.1371C249.27 35.9775 248.18 34.9802 247.16 34.1453V48.8259H236.795V12.2286H247.16V25.0307Z" fill="#9999AD"/>
</g>
</svg>
