<svg width="256" height="55" viewBox="0 0 256 55" fill="none" xmlns="http://www.w3.org/2000/svg">
<g opacity="0.2">
<path d="M21.4442 53.1253C19.3925 48.7879 17.3658 44.2761 15.3642 39.5898C13.3625 34.9035 11.4609 30.2671 9.65944 25.6805C7.85795 21.0939 6.18156 16.7067 4.63028 12.5189C3.12904 8.33118 1.82796 4.59211 0.727051 1.30173H13.6377C14.6386 4.29299 15.7144 7.53352 16.8654 11.0233C18.0664 14.4633 19.2674 17.9032 20.4684 21.3432C21.7194 24.7831 22.9204 28.0735 24.0714 31.2143C25.2223 34.3551 26.2982 37.0722 27.299 39.3655C28.2498 37.0722 29.3007 34.3551 30.4516 31.2143C31.6526 28.0735 32.8536 24.7831 34.0546 21.3432C35.3056 17.9032 36.5066 14.4633 37.6576 11.0233C38.8586 7.53352 39.9595 4.29299 40.9603 1.30173H53.4206C52.2697 4.59211 50.9436 8.33118 49.4423 12.5189C47.9411 16.7067 46.2897 21.0939 44.4882 25.6805C42.6867 30.2671 40.7852 34.9035 38.7835 39.5898C36.7819 44.2761 34.7552 48.7879 32.7035 53.1253H21.4442Z" fill="#9999AD"/>
<path d="M68.0794 27.1761C68.0794 29.7187 68.3797 32.012 68.9802 34.056C69.6307 36.1 70.5315 37.8699 71.6824 39.3655C72.8834 40.8113 74.3346 41.933 76.036 42.7306C77.7374 43.5283 79.689 43.9271 81.8908 43.9271C84.0426 43.9271 85.9692 43.5283 87.6706 42.7306C89.4221 41.933 90.8733 40.8113 92.0242 39.3655C93.2252 37.8699 94.126 36.1 94.7265 34.056C95.377 32.012 95.7023 29.7187 95.7023 27.1761C95.7023 24.6335 95.377 22.3402 94.7265 20.2962C94.126 18.2023 93.2252 16.4325 92.0242 14.9867C90.8733 13.4911 89.4221 12.3445 87.6706 11.5468C85.9692 10.7491 84.0426 10.3503 81.8908 10.3503C79.689 10.3503 77.7374 10.774 76.036 11.6216C74.3346 12.4192 72.8834 13.5659 71.6824 15.0615C70.5315 16.5073 69.6307 18.2771 68.9802 20.371C68.3797 22.415 68.0794 24.6834 68.0794 27.1761ZM107.787 27.1761C107.787 31.6131 107.112 35.5267 105.761 38.9168C104.46 42.257 102.658 45.0738 100.356 47.3671C98.0542 49.6105 95.3019 51.3056 92.0993 52.4522C88.9467 53.5989 85.5439 54.1722 81.8908 54.1722C78.3379 54.1722 74.9851 53.5989 71.8325 52.4522C68.6799 51.3056 65.9277 49.6105 63.5757 47.3671C61.2238 45.0738 59.3722 42.257 58.0211 38.9168C56.67 35.5267 55.9944 31.6131 55.9944 27.1761C55.9944 22.7391 56.695 18.8504 58.0962 15.5102C59.4973 12.1201 61.3739 9.27841 63.7258 6.98512C66.1278 4.69182 68.8801 2.97185 71.9827 1.8252C75.1353 0.678549 78.438 0.105225 81.8908 0.105225C85.4438 0.105225 88.7966 0.678549 91.9492 1.8252C95.1018 2.97185 97.854 4.69182 100.206 6.98512C102.558 9.27841 104.409 12.1201 105.761 15.5102C107.112 18.8504 107.787 22.7391 107.787 27.1761Z" fill="#9999AD"/>
<path d="M152.302 43.1046V53.1253H117.548V1.30173H129.258V43.1046H152.302Z" fill="#9999AD"/>
<path d="M168.929 53.1253C166.878 48.7879 164.851 44.2761 162.849 39.5898C160.848 34.9035 158.946 30.2671 157.145 25.6805C155.343 21.0939 153.667 16.7067 152.116 12.5189C150.614 8.33118 149.313 4.59211 148.212 1.30173H161.123C162.124 4.29299 163.2 7.53352 164.351 11.0233C165.552 14.4633 166.753 17.9032 167.954 21.3432C169.205 24.7831 170.406 28.0735 171.557 31.2143C172.708 34.3551 173.783 37.0722 174.784 39.3655C175.735 37.0722 176.786 34.3551 177.937 31.2143C179.138 28.0735 180.339 24.7831 181.54 21.3432C182.791 17.9032 183.992 14.4633 185.143 11.0233C186.344 7.53352 187.445 4.29299 188.446 1.30173H200.906C199.755 4.59211 198.429 8.33118 196.928 12.5189C195.426 16.7067 193.775 21.0939 191.973 25.6805C190.172 30.2671 188.27 34.9035 186.269 39.5898C184.267 44.2761 182.24 48.7879 180.189 53.1253H168.929Z" fill="#9999AD"/>
<path d="M215.565 27.1761C215.565 29.7187 215.865 32.012 216.465 34.056C217.116 36.1 218.017 37.8699 219.168 39.3655C220.369 40.8113 221.82 41.933 223.521 42.7306C225.223 43.5283 227.174 43.9271 229.376 43.9271C231.528 43.9271 233.454 43.5283 235.156 42.7306C236.907 41.933 238.359 40.8113 239.509 39.3655C240.71 37.8699 241.611 36.1 242.212 34.056C242.862 32.012 243.188 29.7187 243.188 27.1761C243.188 24.6335 242.862 22.3402 242.212 20.2962C241.611 18.2023 240.71 16.4325 239.509 14.9867C238.359 13.4911 236.907 12.3445 235.156 11.5468C233.454 10.7491 231.528 10.3503 229.376 10.3503C227.174 10.3503 225.223 10.774 223.521 11.6216C221.82 12.4192 220.369 13.5659 219.168 15.0615C218.017 16.5073 217.116 18.2771 216.465 20.371C215.865 22.415 215.565 24.6834 215.565 27.1761ZM255.273 27.1761C255.273 31.6131 254.597 35.5267 253.246 38.9168C251.945 42.257 250.143 45.0738 247.841 47.3671C245.539 49.6105 242.787 51.3056 239.585 52.4522C236.432 53.5989 233.029 54.1722 229.376 54.1722C225.823 54.1722 222.47 53.5989 219.318 52.4522C216.165 51.3056 213.413 49.6105 211.061 47.3671C208.709 45.0738 206.857 42.257 205.506 38.9168C204.155 35.5267 203.48 31.6131 203.48 27.1761C203.48 22.7391 204.18 18.8504 205.581 15.5102C206.983 12.1201 208.859 9.27841 211.211 6.98512C213.613 4.69182 216.365 2.97185 219.468 1.8252C222.621 0.678549 225.923 0.105225 229.376 0.105225C232.929 0.105225 236.282 0.678549 239.434 1.8252C242.587 2.97185 245.339 4.69182 247.691 6.98512C250.043 9.27841 251.895 12.1201 253.246 15.5102C254.597 18.8504 255.273 22.7391 255.273 27.1761Z" fill="#9999AD"/>
</g>
</svg>
